HIERARCHY
ROOT root
{
	OFFSET 0.000000 0.000000 0.000000
	CHANNELS 6 Xposition Yposition Zposition Zrotation Yrotation Xrotation
	JOINT lhip
	{
		OFFSET 0.058581 -0.082280 -0.017664
		CHANNELS 3 Zrotation Yrotation Xrotation
		JOINT lknee
		{
			OFFSET 0.043451 -0.386469 0.008037
			CHANNELS 3 Zrotation Yrotation Xrotation
			JOINT lankle
			{
				OFFSET -0.014790 -0.426874 -0.037428
				CHANNELS 3 Zrotation Yrotation Xrotation
				JOINT ltoe
				{
					OFFSET 0.041054 -0.060286 0.122042
					CHANNELS 3 Zrotation Yrotation Xrotation
					End Site
					{
						OFFSET 0.000000 0.000000 0.000000
					}
				}
			}
		}
	}
	JOINT rhip
	{
		OFFSET -0.060310 -0.090513 -0.013543
		CHANNELS 3 Zrotation Yrotation Xrotation
		JOINT rknee
		{
			OFFSET -0.043257 -0.383688 -0.004843
			CHANNELS 3 Zrotation Yrotation Xrotation
			JOINT rankle
			{
				OFFSET 0.019056 -0.420046 -0.034562
				CHANNELS 3 Zrotation Yrotation Xrotation
				JOINT rtoe
				{
					OFFSET -0.034840 -0.062106 0.130323
					CHANNELS 3 Zrotation Yrotation Xrotation
					End Site
					{
						OFFSET 0.000000 0.000000 0.000000
					}
				}
			}
		}
	}
	JOINT lowerback
	{
		OFFSET 0.004439 0.124404 -0.038385
		CHANNELS 3 Zrotation Yrotation Xrotation
		JOINT upperback
		{
			OFFSET 0.004488 0.137956 0.026820
			CHANNELS 3 Zrotation Yrotation Xrotation
			JOINT chest
			{
				OFFSET -0.002265 0.056032 0.002855
				CHANNELS 3 Zrotation Yrotation Xrotation
				JOINT lowerneck
				{
					OFFSET -0.013390 0.211636 -0.033468
					CHANNELS 3 Zrotation Yrotation Xrotation
					JOINT upperneck
					{
						OFFSET 0.010113 0.088937 0.050410
						CHANNELS 3 Zrotation Yrotation Xrotation
						End Site
						{
							OFFSET 0.000000 0.000000 0.000000
						}
					}
				}
				JOINT lclavicle
				{
					OFFSET 0.071702 0.114000 -0.018898
					CHANNELS 3 Zrotation Yrotation Xrotation
					JOINT lshoulder
					{
						OFFSET 0.122921 0.045205 -0.019046
						CHANNELS 3 Zrotation Yrotation Xrotation
						JOINT lelbow
						{
							OFFSET 0.255332 -0.015649 -0.022946
							CHANNELS 3 Zrotation Yrotation Xrotation
							JOINT lwrist
							{
								OFFSET 0.265709 0.012698 -0.007375
								CHANNELS 3 Zrotation Yrotation Xrotation
								End Site
								{
									OFFSET 0.000000 0.000000 0.000000
								}
							}
						}
					}
				}
				JOINT rclavicle
				{
					OFFSET -0.082954 0.112472 -0.023707
					CHANNELS 3 Zrotation Yrotation Xrotation
					JOINT rshoulder
					{
						OFFSET -0.113228 0.046853 -0.008472
						CHANNELS 3 Zrotation Yrotation Xrotation
						JOINT relbow
						{
							OFFSET -0.260127 -0.014369 -0.031269
							CHANNELS 3 Zrotation Yrotation Xrotation
							JOINT rwrist
							{
								OFFSET -0.269108 0.006794 -0.006027
								CHANNELS 3 Zrotation Yrotation Xrotation
								End Site
								{
									OFFSET 0.000000 0.000000 0.000000
								}
							}
						}
					}
				}
			}
		}
	}
}
MOTION
Frames: 17
Frame Time: 0.033333
0.269733 0.136353 0.914183 -80.094824 4.019786 93.298805 19.321431 9.291875 -28.843875 -13.472260 1.732115 42.619873 -0.288374 4.906007 -24.680938 0.000000 -0.000000 0.000000 -15.768514 -15.879392 -31.543902 3.873517 -14.553982 55.103918 3.762761 -6.019297 -17.446240 0.000000 -0.000000 0.000000 -4.307061 3.708350 27.025008 4.102159 -2.047950 -1.931325 2.135610 -2.964064 1.140922 6.694147 -4.252281 -13.747884 7.837679 -10.570911 -11.188369 -22.712856 4.361829 8.801521 -34.900165 11.284178 10.359692 -114.084705 -81.750336 130.143104 27.834096 -6.813061 -22.537407 23.082351 1.105686 -2.584820 39.293015 5.577893 -1.243744 -62.958213 58.329929 -65.731150 -22.861342 11.129806 -11.610379 
0.280339 0.148133 0.882533 -79.749200 5.383713 93.995866 22.301527 12.255888 -34.258309 -13.194457 4.221864 49.469208 -3.331230 2.561880 -26.098902 0.000000 -0.000000 0.000000 -17.790803 -17.396165 -35.811002 -0.483387 -15.934982 60.572833 3.562135 -7.372834 -18.947645 0.000000 -0.000000 0.000000 -4.352283 5.035702 33.047003 4.308100 -1.905570 -2.522258 2.849290 -2.672809 0.184695 7.165971 -3.171270 -17.041117 10.546986 -11.937041 -16.400721 -21.850660 3.322453 9.054118 -32.508799 11.917680 8.523073 -145.053117 -79.432513 161.685952 28.431305 -6.920144 -24.676770 22.071201 1.802736 -2.914964 36.153292 4.865661 -5.173140 -71.947104 55.293308 -75.883904 -26.290000 9.322711 -15.633794 
0.287901 0.162981 0.845983 -79.780759 6.993850 95.292272 25.419154 16.590939 -40.595762 -13.418513 6.316747 57.286352 -3.822331 -0.614636 -27.612314 0.000000 -0.000000 0.000000 -19.619422 -19.564462 -39.820796 -2.389629 -14.659303 62.689412 3.088263 -7.648002 -18.526764 0.000000 -0.000000 0.000000 -4.802319 6.959650 36.710815 4.452674 -1.457852 -2.531049 3.612610 -2.303594 -0.227652 8.403591 -3.084759 -19.515391 13.189226 -12.460439 -20.433549 -22.262417 2.099619 9.326179 -29.416973 10.882158 5.860829 -166.359544 -77.819858 -177.526069 29.389712 -7.084418 -25.083881 22.358625 1.995518 -2.657910 33.549588 3.276514 -8.342625 -76.334520 52.108716 -82.681575 -28.943681 7.592101 -19.647041 
0.289176 0.185336 0.804521 -80.832654 8.491398 95.144120 30.044576 20.351286 -43.918996 -14.360439 7.856389 63.929887 -4.297890 -2.692161 -29.875556 0.000000 -0.000000 0.000000 -22.975502 -21.338222 -40.613836 -3.569764 -12.326773 60.453031 3.667847 -7.847600 -16.990865 0.000000 -0.000000 0.000000 -6.395176 10.659394 40.825581 4.086476 -1.431828 -1.479034 4.763478 -1.787069 -1.541349 10.172528 -4.177892 -19.758906 18.836674 -13.263489 -23.999122 -23.721195 -0.931091 8.675804 -25.473753 7.311731 2.257723 162.899481 -79.539614 -149.082628 32.963664 -6.393788 -23.304130 23.707916 3.661908 -0.323313 35.006904 -0.207326 -9.886721 -75.996153 49.355498 -83.896162 -31.196145 5.902203 -21.621777 
0.286593 0.198919 0.783164 -81.223870 8.862821 94.252753 32.260626 21.541801 -44.731271 -14.155198 8.238359 67.456130 -4.936512 -3.958745 -30.857698 0.000000 -0.000000 0.000000 -25.976547 -22.431331 -38.635765 -4.529247 -11.784871 57.423320 3.949965 -7.849546 -16.860587 0.000000 -0.000000 0.000000 -6.715461 12.884477 43.214084 3.622121 -1.870469 -0.431413 5.173033 -1.313743 -2.271953 9.886085 -4.169958 -18.860961 21.428930 -14.066264 -25.459985 -24.354787 -4.315301 7.032634 -24.658146 2.031784 0.414771 124.783116 -82.303424 -111.555059 35.098997 -5.875693 -20.429220 24.874046 4.723968 1.241612 37.776676 -2.194969 -9.477502 -74.009751 49.460631 -81.723734 -31.855099 4.159503 -23.683420 
0.280864 0.221328 0.758583 -81.193372 9.231826 93.071219 34.378793 22.493367 -45.595788 -13.565290 6.923149 71.077135 -5.675336 -5.272701 -31.835212 0.000000 -0.000000 0.000000 -29.529565 -24.145907 -35.543603 -5.862712 -11.470584 53.718997 4.684671 -7.745638 -17.137929 0.000000 -0.000000 0.000000 -6.346043 15.076133 45.506582 2.765570 -2.451866 0.925680 5.321774 -0.758051 -3.358289 8.954022 -5.010831 -17.049057 23.990564 -15.791046 -24.954920 -26.565359 -10.948128 5.314951 -22.338674 -6.931271 -0.957314 69.678051 -80.060709 -57.948113 37.142581 -4.612554 -16.782058 27.866189 7.721239 4.136680 40.915693 -5.048379 -8.608029 -66.872435 49.143370 -74.665011 -31.915014 2.567017 -24.477452 
0.274176 0.250971 0.739515 -81.658728 9.431307 91.481924 37.217690 23.047830 -44.661157 -13.248289 5.537600 72.700070 -7.446530 -6.057621 -31.888899 0.000000 -0.000000 0.000000 -31.995719 -25.022547 -33.805562 -7.838928 -11.213784 53.312613 5.350004 -7.185932 -17.274479 0.000000 -0.000000 0.000000 -6.555220 16.562523 48.256634 1.560782 -2.564013 1.603965 5.463513 -0.500785 -4.666678 9.246691 -4.975537 -16.067245 25.992564 -16.654293 -22.291064 -28.803327 -17.370078 4.485646 -20.195510 -15.712358 -1.003641 65.393933 -78.818303 -53.617001 37.339584 -5.160741 -15.403080 30.664956 11.490964 6.505510 43.289019 -5.512929 -7.270019 -54.288263 45.949099 -63.679526 -32.583358 1.894687 -22.562052 
0.269053 0.283434 0.722682 -81.810965 9.917824 91.093438 39.952882 23.354283 -44.595636 -12.242278 4.027408 73.182510 -8.892234 -6.934173 -31.028936 0.000000 -0.000000 0.000000 -33.134043 -26.472718 -34.456374 -8.838020 -11.518151 56.749286 4.953967 -6.919915 -17.539189 0.000000 -0.000000 0.000000 -5.881370 16.105409 49.846083 1.065855 -3.020805 1.353122 5.349504 -0.551898 -5.322106 6.615362 -3.882498 -15.591307 26.030366 -16.714588 -21.091401 -27.749330 -21.711440 3.397719 -23.675129 -25.004799 0.370568 73.227517 -80.711095 -56.403263 37.764841 -6.143980 -14.233957 31.522742 14.013586 8.126839 44.176468 -3.325570 -8.063510 -44.998946 40.547371 -55.032493 -34.111006 1.914767 -20.495395 
0.261740 0.322032 0.709393 -82.335222 9.640434 91.161045 42.524832 23.891007 -43.389093 -11.370215 2.584877 71.744040 -11.023659 -8.060994 -29.198039 0.000000 -0.000000 0.000000 -33.300040 -28.314863 -36.618846 -10.763748 -13.378876 62.504330 4.335313 -8.088303 -18.508449 0.000000 -0.000000 0.000000 -6.369307 14.952976 49.599055 1.603799 -3.361786 1.251377 5.894326 -0.885431 -5.484192 4.985781 -2.532799 -15.866096 24.988707 -16.188562 -21.029255 -25.947446 -24.591297 2.902713 -26.391750 -31.890318 1.355927 83.529971 -81.940641 -63.587714 37.704597 -6.230897 -14.755930 31.326474 15.135441 9.075721 42.255302 -1.549567 -9.897395 -43.139642 37.330056 -53.516888 -35.750044 1.393629 -20.275103 
0.250201 0.377873 0.699186 -85.469005 7.684662 90.409566 45.385709 24.640849 -37.905447 -10.774134 0.692104 67.472867 -14.715878 -7.041683 -25.927696 0.000000 -0.000000 0.000000 -32.535927 -29.720477 -41.813978 -11.143224 -12.666384 71.242975 4.879403 -6.570343 -17.688797 0.000000 -0.000000 0.000000 -7.229490 11.692803 48.194906 1.506325 -3.516981 1.403400 5.521297 -1.448335 -5.281343 2.616288 -0.267489 -16.224126 22.269679 -15.149863 -18.912914 -23.182506 -24.979715 1.775756 -25.204273 -32.219376 -0.586819 94.157474 -79.858785 -73.982551 37.245996 -6.784016 -14.959240 28.579611 15.529027 7.608254 37.281167 -0.406833 -11.717285 -44.405621 38.856857 -54.276565 -33.993453 1.947366 -19.869979 
0.237469 0.428791 0.698956 -88.776871 5.758559 89.793338 47.683675 23.615731 -30.420428 -10.423361 -1.411231 60.521604 -17.703800 -4.326674 -22.973487 0.000000 -0.000000 0.000000 -32.436723 -29.979341 -45.228564 -9.961041 -13.085179 76.851288 3.952872 -7.986238 -16.554567 0.000000 -0.000000 0.000000 -7.164845 7.047049 46.369793 0.346542 -2.837097 1.441118 4.019407 -2.001060 -4.836591 0.494564 1.005973 -16.284127 18.196108 -11.727208 -15.407236 -24.402798 -22.057516 1.607863 -21.071112 -26.190704 -3.412468 101.979202 -76.749654 -85.225999 36.697781 -7.017471 -15.583223 27.092624 16.051334 6.405625 30.398125 1.010573 -12.210222 -46.376100 42.365472 -57.142096 -33.252136 4.355669 -16.861476 
0.219692 0.487090 0.706973 -92.139633 3.526271 89.591676 48.642746 20.382136 -20.693934 -8.904645 -5.996297 49.547624 -21.014340 -0.728322 -18.615833 0.000000 -0.000000 0.000000 -32.314827 -30.219639 -46.506663 -7.120221 -13.942537 79.715145 5.585516 -5.113738 -14.769672 0.000000 -0.000000 0.000000 -6.285134 2.026661 42.825010 -1.945297 -1.675560 2.528780 1.033814 -2.199012 -4.127718 -1.240129 3.086161 -16.088309 13.680149 -8.688927 -12.293977 -27.074256 -17.418877 1.164793 -18.729379 -18.377114 -3.913451 101.195052 -73.006318 -87.965784 37.041029 -7.774537 -15.271584 26.634412 16.024854 4.050436 24.275379 3.455497 -11.608466 -47.261485 46.136364 -58.735265 -34.053683 7.988222 -12.637111 
0.199395 0.553627 0.723512 -95.021569 1.631060 90.191754 47.841211 14.812101 -13.810372 -4.691896 -7.729246 40.839681 -20.777596 7.426086 -8.722478 0.000000 -0.000000 0.000000 -31.933456 -29.184389 -46.227716 -7.013318 -17.533980 83.922443 5.028823 -4.299319 -22.369163 0.000000 -0.000000 0.000000 -5.752962 -1.007967 38.686737 -3.992912 -0.468848 2.349308 -1.148494 -2.853812 -3.459757 -0.655761 2.089366 -13.503097 9.735942 -5.364521 -9.921654 -28.673154 -11.507611 1.301222 -19.051503 -10.115140 -2.793777 102.299929 -70.117131 -91.873775 37.684485 -5.899301 -17.071848 23.946538 16.056088 2.247147 24.534385 5.945089 -9.025018 -47.907166 49.527170 -60.580502 -36.272023 9.428709 -11.979852 
0.181752 0.626406 0.744767 -96.162828 0.342677 91.278584 45.479712 11.702022 -13.888012 -5.816612 -7.912119 40.548048 -7.032353 12.292607 -5.933372 0.000000 -0.000000 0.000000 -28.927818 -28.642197 -45.337300 -4.338509 -19.540725 84.824856 2.150475 -7.456176 -27.150849 0.000000 -0.000000 0.000000 -6.696230 -1.050473 35.521244 -4.580458 0.132404 0.795871 -1.920246 -3.047944 -1.971555 0.180822 -0.010963 -10.284722 9.799297 -2.687109 -9.240995 -28.574796 -6.600166 1.821660 -16.979784 -4.395342 -1.603453 108.139152 -71.317869 -100.395398 40.625225 -2.432088 -19.156258 22.599309 14.411290 1.465555 26.820454 6.332994 -6.000079 -49.415737 52.968703 -62.218099 -35.094029 9.680412 -12.120320 
0.166939 0.698994 0.766935 -95.575641 0.495544 91.540816 42.490263 15.049852 -20.413109 -8.185038 -2.018609 51.034290 -5.203112 9.531802 -10.784701 0.000000 -0.000000 0.000000 -24.431696 -27.855896 -42.851297 -4.517165 -21.161918 86.252904 0.985541 -8.496289 -30.804024 0.000000 -0.000000 0.000000 -7.473227 1.390840 35.039683 -3.358217 -0.523349 0.271126 -1.382913 -2.589879 -1.655946 1.557969 -1.274816 -8.678669 11.227183 -3.262485 -10.068680 -26.956125 -5.592971 2.260956 -14.833668 -0.870706 -1.575357 116.290807 -72.970984 -108.397612 39.475651 -2.907925 -19.056705 22.233767 12.510845 1.142829 30.660655 4.180985 -5.477629 -53.824565 55.016496 -64.483594 -33.344613 10.237376 -12.049125 
0.155262 0.768769 0.787899 -93.959449 1.759510 91.436186 37.854478 18.252067 -29.059223 -6.830141 6.242167 64.047825 -4.271569 9.616780 -15.308641 0.000000 -0.000000 0.000000 -21.449827 -26.676648 -41.112280 -4.168421 -22.679197 90.189206 3.052599 -5.220816 -25.388097 0.000000 -0.000000 0.000000 -7.958552 4.397587 36.638671 -1.179164 -1.615139 -0.490023 -0.293739 -2.031831 -1.203013 2.759576 0.698865 -8.778004 13.146871 -5.808750 -11.191048 -23.321032 -6.490444 2.518937 -13.106203 1.174447 -1.067772 126.644325 -73.531970 -118.942018 39.776368 -3.886053 -18.353086 22.623529 11.025302 0.433666 35.303912 3.120877 -5.527432 -57.177332 54.387790 -66.654543 -33.892560 9.597117 -13.087780 
0.143687 0.834582 0.804326 -90.997120 4.530590 91.746754 31.717988 20.406057 -38.847685 -5.982259 12.794939 74.779129 -2.185790 8.179966 -19.464639 0.000000 -0.000000 0.000000 -20.280712 -25.554430 -40.069498 -2.692029 -23.819538 93.947012 7.574885 2.565292 -12.242511 0.000000 -0.000000 0.000000 -6.893854 5.841074 38.358118 1.710617 -2.601392 -0.850739 1.435977 -1.485620 -1.225627 4.200692 0.167991 -8.503622 14.041175 -5.808356 -13.584287 -21.400090 -7.761199 2.366364 -12.325701 2.287993 -0.008620 132.225229 -73.085296 -124.287468 39.444096 -5.480545 -17.182145 23.384472 10.592059 0.136031 37.711272 2.803608 -5.794608 -56.427190 52.288432 -66.514425 -33.295072 8.641198 -13.828402 
